<svg width="27" height="30" viewBox="0 0 27 30" fill="none" xmlns="http://www.w3.org/2000/svg">
<path id="Vector" d="M24.4306 13.6275L24.1906 13.2468C24.1971 10.5288 22.8025 9.42166 21.1743 8.57814C21.6673 8.46098 22.1733 8.36726 22.316 7.80491C23.1657 7.61161 23.3408 7.25428 23.4252 6.87938C23.6457 6.74466 24.3852 6.36976 24.3073 5.7254C24.7225 5.46766 24.956 5.13377 24.8328 4.66515C25.2803 4.22582 25.3971 3.86263 25.209 3.52874C25.7474 2.92539 25.5074 2.61493 25.2803 2.30447C25.6825 1.6484 25.3257 0.945464 24.2036 1.06262C23.756 0.470985 22.783 0.605714 22.6338 0.605714C22.4652 0.418265 22.2446 0.254248 21.5635 0.330398C21.1224 -0.0269254 20.6295 0.03751 20.117 0.207385C19.5138 -0.220232 19.1116 0.125377 18.6511 0.254247C17.9181 0.0433678 17.7494 0.330398 17.3927 0.453412C16.5948 0.30111 16.3483 0.629145 15.9656 0.974753L15.5181 0.968895C14.3116 1.60153 13.7148 2.89024 13.5007 3.55217C13.2867 2.89024 12.6899 1.60153 11.4834 0.968895L11.0359 0.974753C10.6531 0.629145 10.4067 0.30111 9.60881 0.453412C9.24556 0.336256 9.0834 0.0433678 8.35042 0.254247C8.05204 0.172239 7.77312 -0.00349437 7.44879 0.0023634C7.28014 0.00822117 7.09203 0.0609411 6.88446 0.207385C6.37202 0.0316523 5.87904 -0.0269254 5.43796 0.330398C4.75687 0.254248 4.52984 0.412407 4.36767 0.605714C4.21848 0.605714 3.2455 0.470985 2.79793 1.06262C1.67575 0.945464 1.32548 1.6484 1.72765 2.30447C1.50062 2.62079 1.26061 2.93125 1.799 3.52874C1.61089 3.86263 1.72765 4.22582 2.17522 4.66515C2.05846 5.13377 2.29198 5.46766 2.70063 5.7254C2.62279 6.36976 3.36226 6.74466 3.5828 6.87938C3.66713 7.25428 3.84226 7.60575 4.692 7.80491C4.83471 8.3614 5.34066 8.46098 5.83364 8.57814C4.20551 9.42166 2.8109 10.5288 2.81739 13.2468L2.57739 13.6275C0.709258 14.6351 -0.97076 17.8861 1.65629 20.5221C1.82495 21.3481 2.11684 21.9397 2.36982 22.5958C2.75252 25.2435 5.25633 26.4795 5.91147 26.6259C6.87797 27.282 7.90933 27.9029 9.29745 28.3364C10.6142 29.5431 12.0413 30 13.4683 30H13.5332C14.9667 30 16.3873 29.5431 17.6975 28.3364C19.0922 27.9029 20.117 27.282 21.0835 26.6259C21.7452 26.4795 24.2425 25.2435 24.6252 22.5958C24.8782 21.9397 25.1701 21.3481 25.3387 20.5221C27.9722 17.8803 26.2922 14.6351 24.4306 13.6275ZM22.9906 13.1589C22.8933 14.2543 16.5754 9.34551 17.6651 9.18149C20.6295 8.74216 23.0879 10.3062 22.9906 13.1589ZM20.2014 18.6125C18.6121 19.538 16.3224 18.9405 15.0899 17.2769C13.8575 15.6133 14.1429 13.5162 15.7321 12.5907C17.3213 11.6652 19.6111 12.2627 20.8435 13.9263C22.076 15.5899 21.7906 17.687 20.2014 18.6125ZM15.797 1.72455C15.8489 1.97057 15.9137 2.12288 15.9851 2.16974C16.3354 1.82999 16.6208 1.48438 17.0748 1.15634C17.0748 1.34965 16.9646 1.55467 17.237 1.70697C17.477 1.41409 17.8078 1.15049 18.2424 0.927891C18.0348 1.25593 18.2035 1.35551 18.3203 1.49024C18.6511 1.23249 18.9689 0.974753 19.5786 0.769731C19.41 0.951322 19.1765 1.13291 19.423 1.34379C19.7668 1.15049 20.1105 0.95718 20.9214 0.822451C20.7397 1.00404 20.357 1.19149 20.5905 1.37308C21.0187 1.22664 21.4987 1.11534 22.0241 1.05676C21.7711 1.24421 21.5635 1.4258 21.7711 1.57225C22.2316 1.44337 22.8673 1.2735 23.4835 1.41994L23.0944 1.77727C23.049 1.82413 24.009 1.81241 24.6446 1.82413C24.4111 2.11702 24.1776 2.39233 24.0414 2.89024C24.1063 2.94882 24.4176 2.91368 24.716 2.89024C24.4111 3.47016 23.8857 3.61075 23.7625 3.86263C23.9506 3.9915 24.2036 3.95636 24.489 3.86849C24.2684 4.27268 23.8144 4.55385 23.4511 4.88189C23.5419 4.94046 23.7041 4.97561 24.0803 4.93461C23.743 5.25678 23.3408 5.54967 22.8608 5.81327C22.9452 5.90114 23.2371 5.90114 23.5095 5.90699C23.0749 6.28775 22.5171 6.48691 21.9916 6.7388C22.2511 6.89696 22.4392 6.86181 22.6403 6.86181C22.2706 7.13713 21.6414 7.27771 21.0576 7.44759C21.1679 7.60575 21.2781 7.64675 21.5181 7.68776C20.9019 7.99822 20.0132 7.85763 19.7668 8.01579C19.8251 8.17395 20.0003 8.27353 20.2014 8.35554C19.2024 8.40826 16.4846 8.3204 15.9591 6.46348C16.9775 5.45009 18.8392 4.26682 22.037 2.79652C19.5462 3.54631 17.3019 4.55385 15.4208 5.93043C13.1959 4.99904 14.7202 2.65593 15.797 1.72455ZM13.5656 8.43755C15.1354 8.41998 17.0748 9.48024 17.0683 10.4702C17.0619 11.3489 15.7062 12.0577 13.5786 12.0459C11.4964 12.0225 10.0953 11.1556 10.1018 10.3003C10.1018 9.60325 11.8013 8.39655 13.5656 8.43755ZM5.58715 7.68776C5.82715 7.64675 5.93742 7.59989 6.04769 7.44759C5.4639 7.28357 4.83471 7.13713 4.46497 6.86181C4.66606 6.86181 4.85417 6.90282 5.11363 6.7388C4.58822 6.48691 4.03037 6.28775 3.59577 5.90699C3.86821 5.90114 4.1601 5.90699 4.24443 5.81327C3.76442 5.54967 3.36226 5.25678 3.02496 4.93461C3.40118 4.97561 3.56334 4.94046 3.65415 4.88189C3.29091 4.55385 2.83036 4.27268 2.6163 3.86849C2.89523 3.95636 3.15469 3.98565 3.3428 3.86263C3.21955 3.61661 2.69414 3.47016 2.38928 2.89024C2.68766 2.91368 2.99901 2.94882 3.06388 2.89024C2.92766 2.39233 2.68766 2.11116 2.46063 1.82413C3.09631 1.81827 4.05632 1.82413 4.01091 1.77727L3.62172 1.41994C4.23794 1.2735 4.87363 1.44337 5.33417 1.57225C5.54174 1.4258 5.32768 1.24421 5.0812 1.05676C5.60661 1.1212 6.08013 1.22664 6.51472 1.37308C6.74175 1.19149 6.36553 1.00404 6.18391 0.822451C6.99473 0.95718 7.33852 1.15049 7.6823 1.34379C7.92879 1.13291 7.69528 0.951322 7.52663 0.769731C8.13636 0.968895 8.4542 1.23249 8.78502 1.49024C8.89529 1.35551 9.07043 1.25593 8.86286 0.927891C9.29746 1.15049 9.62827 1.41409 9.86827 1.70697C10.1342 1.55467 10.0304 1.34379 10.0304 1.15634C10.4845 1.48438 10.7699 1.82999 11.1202 2.16974C11.1915 2.12288 11.2499 1.97057 11.3083 1.72455C12.3851 2.65593 13.9094 4.99904 11.6975 5.93043C9.81638 4.55385 7.57203 3.54631 5.0812 2.79652C8.27907 4.26096 10.1407 5.45009 11.1591 6.46348C10.6402 8.32625 7.91582 8.40826 6.91689 8.35554C7.11797 8.27353 7.29311 8.16809 7.35149 8.01579C7.09203 7.85178 6.20986 7.99236 5.58715 7.68776ZM9.48557 9.09948C10.5753 9.2635 4.2574 14.1665 4.1601 13.0769C4.06281 10.2242 6.5277 8.65429 9.48557 9.09948ZM2.77847 20.0418C1.24116 18.9405 0.748177 15.7246 3.59577 14.2836C5.31471 13.8736 4.17956 20.5983 2.77847 20.0418ZM8.68123 25.7941C7.81852 26.2569 5.71039 26.0694 4.21848 24.1598C3.21307 22.5548 3.3428 20.9263 4.04983 20.446C5.10714 19.8719 6.74175 20.6451 8.00014 21.9456C9.09637 23.1171 9.59584 25.1849 8.68123 25.7941ZM6.96878 18.7824C5.37958 17.8568 5.09417 15.7598 6.32661 14.0962C7.55906 12.4326 9.84881 11.8351 11.438 12.7606C13.0272 13.6861 13.3126 15.7832 12.0802 17.4468C10.8413 19.1104 8.5515 19.7079 6.96878 18.7824ZM13.598 29.0628C11.691 29.1331 9.82287 27.6745 9.84881 27.1707C9.82287 26.4268 12.171 25.8468 13.6953 25.882C15.2327 25.8234 17.3019 26.3213 17.3084 26.9891C17.3408 27.6335 15.4402 29.092 13.598 29.0628ZM17.4186 21.7464C17.4316 23.4862 15.7191 24.8979 13.6045 24.9096C11.4899 24.9213 9.76449 23.5155 9.75151 21.7816V21.7464C9.73854 20.0066 11.451 18.5949 13.5656 18.5832C15.6802 18.5715 17.4056 19.9774 17.4186 21.7113V21.7464ZM22.7506 24.2477C21.1095 26.2745 18.8846 26.3506 18.0608 25.7883C17.1981 25.0619 17.8532 22.8067 19.0403 21.5707C20.396 20.2058 21.8489 19.3154 22.8608 20.0125C23.5419 20.6159 23.9441 22.8887 22.7506 24.2477ZM24.236 19.9598C22.8414 20.5104 21.7062 13.7916 23.4187 14.2016C26.2663 15.6485 25.7733 18.8644 24.236 19.9598Z" fill="#D6D6D6"/>
</svg>
