<svg width="27" height="28" viewBox="0 0 27 28" fill="none" xmlns="http://www.w3.org/2000/svg">
<path id="Vector" d="M25.189 7.25099C28.917 13.7068 26.7047 21.9632 20.2489 25.6885C14.6839 28.9009 7.78669 27.701 3.59977 23.178C3.36268 22.9143 3.23891 22.5678 3.25523 22.2135C3.27155 21.8593 3.42664 21.5257 3.68698 21.2848C3.94731 21.044 4.29197 20.9153 4.64643 20.9266C5.0009 20.9378 5.33669 21.0882 5.5812 21.345C7.24885 23.1435 9.47909 24.3206 11.9049 24.6827C14.3306 25.0448 16.8074 24.5703 18.9276 23.3373C21.0478 22.1042 22.685 20.1861 23.5698 17.8987C24.4547 15.6112 24.5344 13.0906 23.7959 10.7518C23.0574 8.41295 21.5446 6.39522 19.5066 5.03064C17.4686 3.66607 15.0268 3.03597 12.583 3.24403C10.1392 3.4521 7.83902 4.48593 6.06104 6.1754C4.28306 7.86486 3.13321 10.1093 2.80072 12.5393L4.52975 12.0871C5.94293 11.7187 6.98359 13.3964 6.02527 14.4991L2.98564 17.9909C2.21898 18.871 0.738309 18.5713 0.431917 17.3916C-0.309118 14.5327 -0.0923059 11.5097 1.04913 8.78583C2.19056 6.06194 4.19365 3.78746 6.75143 2.31091C13.2073 -1.41574 21.4623 0.795149 25.189 7.25099ZM13.5002 5.90124C13.8581 5.90124 14.2015 6.04345 14.4546 6.29657C14.7077 6.5497 14.8499 6.89301 14.8499 7.25099V13.4409L18.5037 17.0947C18.6326 17.2192 18.7354 17.3681 18.8062 17.5328C18.8769 17.6975 18.9141 17.8746 18.9157 18.0538C18.9172 18.233 18.8831 18.4108 18.8152 18.5767C18.7474 18.7425 18.6471 18.8932 18.5204 19.02C18.3937 19.1467 18.243 19.2469 18.0771 19.3148C17.9112 19.3827 17.7335 19.4168 17.5543 19.4152C17.375 19.4137 17.1979 19.3765 17.0333 19.3057C16.8686 19.235 16.7196 19.1322 16.5951 19.0032L12.5459 14.954C12.2928 14.7009 12.1505 14.3577 12.1504 13.9997V7.25099C12.1504 6.89301 12.2926 6.5497 12.5458 6.29657C12.7989 6.04345 13.1422 5.90124 13.5002 5.90124Z" fill="#D6D6D6"/>
</svg>
