<?xml version="1.0" encoding="UTF-8"?>
<svg xmlns="http://www.w3.org/2000/svg" xmlns:xlink="http://www.w3.org/1999/xlink" width="36px" height="36px" viewBox="0 0 36 36" version="1.1">
<g id="surface1">
<path style=" stroke:none;fill-rule:nonzero;fill:rgb(0%,9.803922%,61.568627%);fill-opacity:1;" d="M 30.988281 10.5 C 35.132812 17.675781 32.675781 26.851562 25.5 30.988281 C 19.316406 34.558594 11.652344 33.226562 6.996094 28.199219 C 6.734375 27.90625 6.597656 27.523438 6.613281 27.128906 C 6.632812 26.734375 6.804688 26.363281 7.09375 26.097656 C 7.382812 25.828125 7.765625 25.683594 8.160156 25.699219 C 8.554688 25.710938 8.929688 25.878906 9.199219 26.164062 C 11.054688 28.160156 13.53125 29.46875 16.226562 29.871094 C 18.921875 30.273438 21.675781 29.746094 24.03125 28.378906 C 26.386719 27.007812 28.207031 24.875 29.191406 22.332031 C 30.175781 19.789062 30.261719 16.988281 29.441406 14.390625 C 28.621094 11.792969 26.941406 9.550781 24.675781 8.03125 C 22.410156 6.515625 19.695312 5.816406 16.980469 6.046875 C 14.265625 6.277344 11.707031 7.425781 9.734375 9.304688 C 7.757812 11.183594 6.480469 13.675781 6.109375 16.378906 L 8.03125 15.875 C 9.601562 15.464844 10.757812 17.328125 9.691406 18.554688 L 6.316406 22.433594 C 5.464844 23.414062 3.816406 23.082031 3.476562 21.769531 C 2.652344 18.59375 2.894531 15.234375 4.164062 12.207031 C 5.429688 9.179688 7.65625 6.652344 10.5 5.011719 C 17.675781 0.867188 26.847656 3.324219 30.988281 10.5 Z M 18 9 C 18.398438 9 18.78125 9.15625 19.0625 9.4375 C 19.34375 9.71875 19.5 10.101562 19.5 10.5 L 19.5 17.378906 L 23.558594 21.441406 C 23.703125 21.578125 23.816406 21.742188 23.898438 21.925781 C 23.976562 22.109375 24.015625 22.304688 24.019531 22.503906 C 24.019531 22.703125 23.980469 22.902344 23.90625 23.085938 C 23.832031 23.269531 23.71875 23.4375 23.578125 23.578125 C 23.4375 23.71875 23.269531 23.832031 23.085938 23.90625 C 22.902344 23.980469 22.703125 24.019531 22.503906 24.019531 C 22.304688 24.015625 22.109375 23.976562 21.925781 23.898438 C 21.742188 23.816406 21.578125 23.703125 21.441406 23.558594 L 16.941406 19.058594 C 16.65625 18.78125 16.5 18.398438 16.5 18 L 16.5 10.5 C 16.5 10.101562 16.65625 9.71875 16.9375 9.4375 C 17.21875 9.15625 17.601562 9 18 9 Z M 18 9 "/>
</g>
</svg>
