<svg width="29" height="35" viewBox="0 0 29 35" fill="none" xmlns="http://www.w3.org/2000/svg">
<g id="&#240;&#159;&#166;&#134; icon &#34;Alternate Fire&#34;">
<path id="Vector" d="M20.6146 3.5C19.3216 4.81934 18.1541 6.20635 17.1196 7.59951C15.425 5.03262 13.3237 2.42881 10.944 0C4.8355 6.23232 0.5 14.3527 0.5 19.25C0.5 27.9487 6.73469 35 14.4253 35C22.1159 35 28.3506 27.9487 28.3506 19.25C28.3506 15.6085 25.1192 8.09785 20.6146 3.5ZM19.4042 26.7866C18.0577 27.823 16.3972 28.4375 14.6031 28.4375C10.1178 28.4375 6.46799 25.174 6.46799 19.8755C6.46799 17.2361 7.97926 14.9105 10.9931 10.9375C11.4239 11.483 17.137 19.5057 17.137 19.5057L20.7819 14.9338C21.0392 15.4021 21.2736 15.8601 21.4825 16.2989C23.1827 19.8666 22.4653 24.4316 19.4042 26.7866Z" fill="url(#paint0_linear_69_207)"/>
</g>
<defs>
<linearGradient id="paint0_linear_69_207" x1="14.4253" y1="0" x2="14.4253" y2="35" gradientUnits="userSpaceOnUse">
<stop offset="0.116127" stop-color="#D72E29"/>
<stop offset="0.5328" stop-color="#FF5903" stop-opacity="0.859375"/>
<stop offset="1" stop-color="#FED144"/>
</linearGradient>
</defs>
</svg>
