<svg width="27" height="30" viewBox="0 0 27 30" fill="none" xmlns="http://www.w3.org/2000/svg">
<g id="&#240;&#159;&#166;&#134; icon &#34;Raspberry Pi&#34;">
<path id="Vector" d="M24.1301 13.6275L23.89 13.2468C23.8965 10.5288 22.5019 9.42166 20.8738 8.57814C21.3668 8.46098 21.8727 8.36726 22.0154 7.80491C22.8652 7.61161 23.0403 7.25428 23.1246 6.87938C23.3452 6.74466 24.0846 6.36976 24.0068 5.7254C24.4219 5.46766 24.6555 5.13377 24.5322 4.66515C24.9798 4.22582 25.0965 3.86263 24.9084 3.52874C25.4468 2.92539 25.2068 2.61493 24.9798 2.30447C25.382 1.6484 25.0252 0.945464 23.903 1.06262C23.4554 0.470985 22.4825 0.605714 22.3333 0.605714C22.1646 0.418265 21.9441 0.254248 21.263 0.330398C20.8219 -0.0269254 20.3289 0.03751 19.8165 0.207385C19.2132 -0.220232 18.8111 0.125377 18.3505 0.254247C17.6175 0.0433678 17.4489 0.330398 17.0921 0.453412C16.2943 0.30111 16.0478 0.629145 15.6651 0.974753L15.2175 0.968895C14.011 1.60153 13.4143 2.89024 13.2002 3.55217C12.9861 2.89024 12.3894 1.60153 11.1829 0.968895L10.7353 0.974753C10.3526 0.629145 10.1061 0.30111 9.30827 0.453412C8.94503 0.336256 8.78286 0.0433678 8.04988 0.254247C7.7515 0.172239 7.47258 -0.00349437 7.14825 0.0023634C6.9796 0.00822117 6.79149 0.0609411 6.58392 0.207385C6.07148 0.0316523 5.5785 -0.0269254 5.13742 0.330398C4.45633 0.254248 4.2293 0.412407 4.06714 0.605714C3.91795 0.605714 2.94496 0.470985 2.49739 1.06262C1.37522 0.945464 1.02494 1.6484 1.42711 2.30447C1.20008 2.62079 0.960078 2.93125 1.49846 3.52874C1.31035 3.86263 1.42711 4.22582 1.87468 4.66515C1.75792 5.13377 1.99144 5.46766 2.40009 5.7254C2.32225 6.36976 3.06172 6.74466 3.28226 6.87938C3.36659 7.25428 3.54173 7.60575 4.39147 7.80491C4.53417 8.3614 5.04012 8.46098 5.5331 8.57814C3.90497 9.42166 2.51036 10.5288 2.51685 13.2468L2.27685 13.6275C0.40872 14.6351 -1.2713 17.8861 1.35576 20.5221C1.52441 21.3481 1.8163 21.9397 2.06928 22.5958C2.45199 25.2435 4.9558 26.4795 5.61094 26.6259C6.57743 27.282 7.6088 27.9029 8.99692 28.3364C10.3137 29.5431 11.7407 30 13.1678 30H13.2326C14.6662 30 16.0867 29.5431 17.397 28.3364C18.7916 27.9029 19.8165 27.282 20.783 26.6259C21.4446 26.4795 23.9419 25.2435 24.3246 22.5958C24.5776 21.9397 24.8695 21.3481 25.0382 20.5221C27.6717 17.8803 25.9917 14.6351 24.1301 13.6275ZM22.69 13.1589C22.5927 14.2543 16.2748 9.34551 17.3646 9.18149C20.3289 8.74216 22.7873 10.3062 22.69 13.1589ZM19.9008 18.6125C18.3116 19.538 16.0219 18.9405 14.7894 17.2769C13.557 15.6133 13.8424 13.5162 15.4316 12.5907C17.0208 11.6652 19.3105 12.2627 20.543 13.9263C21.7754 15.5899 21.49 17.687 19.9008 18.6125ZM15.4964 1.72455C15.5483 1.97057 15.6132 2.12288 15.6846 2.16974C16.0348 1.82999 16.3202 1.48438 16.7743 1.15634C16.7743 1.34965 16.664 1.55467 16.9365 1.70697C17.1765 1.41409 17.5073 1.15049 17.9419 0.927891C17.7343 1.25593 17.903 1.35551 18.0197 1.49024C18.3505 1.23249 18.6684 0.974753 19.2781 0.769731C19.1095 0.951322 18.8759 1.13291 19.1224 1.34379C19.4662 1.15049 19.81 0.95718 20.6208 0.822451C20.4392 1.00404 20.0565 1.19149 20.29 1.37308C20.7181 1.22664 21.1981 1.11534 21.7235 1.05676C21.4706 1.24421 21.263 1.4258 21.4706 1.57225C21.9311 1.44337 22.5668 1.2735 23.183 1.41994L22.7938 1.77727C22.7484 1.82413 23.7084 1.81241 24.3441 1.82413C24.1106 2.11702 23.8771 2.39233 23.7409 2.89024C23.8057 2.94882 24.1171 2.91368 24.4155 2.89024C24.1106 3.47016 23.5852 3.61075 23.4619 3.86263C23.65 3.9915 23.903 3.95636 24.1884 3.86849C23.9679 4.27268 23.5138 4.55385 23.1506 4.88189C23.2414 4.94046 23.4036 4.97561 23.7798 4.93461C23.4425 5.25678 23.0403 5.54967 22.5603 5.81327C22.6446 5.90114 22.9365 5.90114 23.209 5.90699C22.7744 6.28775 22.2165 6.48691 21.6911 6.7388C21.9506 6.89696 22.1387 6.86181 22.3398 6.86181C21.97 7.13713 21.3408 7.27771 20.757 7.44759C20.8673 7.60575 20.9776 7.64675 21.2176 7.68776C20.6014 7.99822 19.7127 7.85763 19.4662 8.01579C19.5246 8.17395 19.6997 8.27353 19.9008 8.35554C18.9019 8.40826 16.184 8.3204 15.6586 6.46348C16.677 5.45009 18.5386 4.26682 21.7365 2.79652C19.2457 3.54631 17.0013 4.55385 15.1202 5.93043C12.8953 4.99904 14.4197 2.65593 15.4964 1.72455ZM13.2651 8.43755C14.8348 8.41998 16.7743 9.48024 16.7678 10.4702C16.7613 11.3489 15.4056 12.0577 13.278 12.0459C11.1959 12.0225 9.79476 11.1556 9.80125 10.3003C9.80125 9.60325 11.5007 8.39655 13.2651 8.43755ZM5.28661 7.68776C5.52661 7.64675 5.63688 7.59989 5.74715 7.44759C5.16336 7.28357 4.53417 7.13713 4.16444 6.86181C4.36552 6.86181 4.55363 6.90282 4.81309 6.7388C4.28768 6.48691 3.72984 6.28775 3.29524 5.90699C3.56767 5.90114 3.85957 5.90699 3.94389 5.81327C3.46389 5.54967 3.06172 5.25678 2.72442 4.93461C3.10064 4.97561 3.2628 4.94046 3.35362 4.88189C2.99037 4.55385 2.52982 4.27268 2.31577 3.86849C2.59469 3.95636 2.85415 3.98565 3.04226 3.86263C2.91902 3.61661 2.39361 3.47016 2.08874 2.89024C2.38712 2.91368 2.69847 2.94882 2.76334 2.89024C2.62712 2.39233 2.38712 2.11116 2.16009 1.82413C2.79577 1.81827 3.75578 1.82413 3.71038 1.77727L3.32118 1.41994C3.93741 1.2735 4.57309 1.44337 5.03363 1.57225C5.2412 1.4258 5.02715 1.24421 4.78066 1.05676C5.30607 1.1212 5.77959 1.22664 6.21419 1.37308C6.44122 1.19149 6.065 1.00404 5.88337 0.822451C6.69419 0.95718 7.03798 1.15049 7.38177 1.34379C7.62826 1.13291 7.39474 0.951322 7.22609 0.769731C7.83583 0.968895 8.15367 1.23249 8.48448 1.49024C8.59475 1.35551 8.76989 1.25593 8.56232 0.927891C8.99692 1.15049 9.32773 1.41409 9.56773 1.70697C9.83368 1.55467 9.7299 1.34379 9.7299 1.15634C10.184 1.48438 10.4694 1.82999 10.8196 2.16974C10.891 2.12288 10.9494 1.97057 11.0077 1.72455C12.0845 2.65593 13.6089 4.99904 11.3969 5.93043C9.51584 4.55385 7.2715 3.54631 4.78066 2.79652C7.97853 4.26096 9.84017 5.45009 10.8586 6.46348C10.3396 8.32625 7.61528 8.40826 6.61635 8.35554C6.81744 8.27353 6.99257 8.16809 7.05095 8.01579C6.79149 7.85178 5.90932 7.99236 5.28661 7.68776ZM9.18503 9.09948C10.2748 9.2635 3.95687 14.1665 3.85957 13.0769C3.76227 10.2242 6.22716 8.65429 9.18503 9.09948ZM2.47793 20.0418C0.940618 18.9405 0.44764 15.7246 3.29524 14.2836C5.01417 13.8736 3.87903 20.5983 2.47793 20.0418ZM8.3807 25.7941C7.51798 26.2569 5.40985 26.0694 3.91795 24.1598C2.91253 22.5548 3.04226 20.9263 3.7493 20.446C4.8066 19.8719 6.44122 20.6451 7.69961 21.9456C8.79584 23.1171 9.2953 25.1849 8.3807 25.7941ZM6.66825 18.7824C5.07904 17.8568 4.79363 15.7598 6.02608 14.0962C7.25852 12.4326 9.54827 11.8351 11.1375 12.7606C12.7267 13.6861 13.0121 15.7832 11.7797 17.4468C10.5407 19.1104 8.25097 19.7079 6.66825 18.7824ZM13.2975 29.0628C11.3905 29.1331 9.52233 27.6745 9.54827 27.1707C9.52233 26.4268 11.8705 25.8468 13.3948 25.882C14.9321 25.8234 17.0013 26.3213 17.0078 26.9891C17.0402 27.6335 15.1397 29.092 13.2975 29.0628ZM17.1181 21.7464C17.1311 23.4862 15.4186 24.8979 13.304 24.9096C11.1894 24.9213 9.46395 23.5155 9.45098 21.7816V21.7464C9.438 20.0066 11.1505 18.5949 13.2651 18.5832C15.3797 18.5715 17.1051 19.9774 17.1181 21.7113V21.7464ZM22.45 24.2477C20.8089 26.2745 18.584 26.3506 17.7603 25.7883C16.8975 25.0619 17.5527 22.8067 18.7397 21.5707C20.0954 20.2058 21.5484 19.3154 22.5603 20.0125C23.2414 20.6159 23.6436 22.8887 22.45 24.2477ZM23.9355 19.9598C22.5408 20.5104 21.4057 13.7916 23.1181 14.2016C25.9657 15.6485 25.4728 18.8644 23.9355 19.9598Z" fill="#00199D"/>
</g>
</svg>
