<svg width="29" height="22" viewBox="0 0 29 22" fill="none" xmlns="http://www.w3.org/2000/svg">
<g id="&#240;&#159;&#166;&#134; icon &#34;Shower&#34;">
<path id="Vector" d="M16.6381 14.1429C16.4649 14.1429 16.2956 14.189 16.1516 14.2753C16.0076 14.3617 15.8954 14.4844 15.8291 14.6279C15.7628 14.7715 15.7455 14.9295 15.7792 15.0819C15.813 15.2343 15.8964 15.3743 16.0189 15.4842C16.1414 15.5941 16.2974 15.6689 16.4673 15.6992C16.6371 15.7295 16.8132 15.714 16.9732 15.6545C17.1332 15.5951 17.27 15.4943 17.3662 15.3651C17.4624 15.2359 17.5138 15.084 17.5138 14.9286C17.5138 14.7202 17.4215 14.5204 17.2573 14.373C17.0931 14.2257 16.8704 14.1429 16.6381 14.1429ZM18.3895 9.42866C18.2163 9.42866 18.047 9.47474 17.903 9.56107C17.759 9.64741 17.6467 9.77012 17.5805 9.91369C17.5142 10.0573 17.4968 10.2152 17.5306 10.3677C17.5644 10.5201 17.6478 10.6601 17.7703 10.7699C17.8927 10.8798 18.0488 10.9547 18.2187 10.985C18.3885 11.0153 18.5646 10.9997 18.7246 10.9403C18.8846 10.8808 19.0214 10.7801 19.1176 10.6509C19.2138 10.5217 19.2652 10.3698 19.2652 10.2144C19.2652 10.006 19.1729 9.80613 19.0087 9.65879C18.8445 9.51144 18.6217 9.42866 18.3895 9.42866ZM20.1409 12.5715C20.3141 12.5715 20.4834 12.5254 20.6274 12.4391C20.7714 12.3527 20.8836 12.23 20.9499 12.0865C21.0162 11.9429 21.0335 11.7849 20.9997 11.6325C20.9659 11.4801 20.8825 11.3401 20.7601 11.2302C20.6376 11.1203 20.4816 11.0455 20.3117 11.0152C20.1418 10.9849 19.9658 11.0004 19.8058 11.0599C19.6457 11.1194 19.509 11.2201 19.4128 11.3493C19.3165 11.4785 19.2652 11.6304 19.2652 11.7858C19.2652 11.9942 19.3574 12.194 19.5217 12.3414C19.6859 12.4887 19.9086 12.5715 20.1409 12.5715ZM18.3895 14.1429C18.5627 14.1429 18.732 14.0968 18.876 14.0105C19.02 13.9242 19.1322 13.8014 19.1985 13.6579C19.2648 13.5143 19.2821 13.3563 19.2484 13.2039C19.2146 13.0515 19.1312 12.9115 19.0087 12.8016C18.8862 12.6917 18.7302 12.6169 18.5603 12.5866C18.3905 12.5563 18.2144 12.5718 18.0544 12.6313C17.8944 12.6908 17.7576 12.7915 17.6614 12.9207C17.5652 13.0499 17.5138 13.2018 17.5138 13.3572C17.5138 13.5656 17.6061 13.7654 17.7703 13.9128C17.9345 14.0601 18.1572 14.1429 18.3895 14.1429ZM16.6381 11.0001C16.4649 11.0001 16.2956 11.0462 16.1516 11.1325C16.0076 11.2188 15.8954 11.3415 15.8291 11.4851C15.7628 11.6287 15.7455 11.7867 15.7792 11.9391C15.813 12.0915 15.8964 12.2315 16.0189 12.3414C16.1414 12.4512 16.2974 12.5261 16.4673 12.5564C16.6371 12.5867 16.8132 12.5712 16.9732 12.5117C17.1332 12.4522 17.27 12.3515 17.3662 12.2223C17.4624 12.0931 17.5138 11.9412 17.5138 11.7858C17.5138 11.5774 17.4215 11.3776 17.2573 11.2302C17.0931 11.0829 16.8704 11.0001 16.6381 11.0001ZM23.6436 9.42866C23.8168 9.42866 23.9861 9.38258 24.1301 9.29624C24.2741 9.20991 24.3864 9.0872 24.4527 8.94363C24.5189 8.80006 24.5363 8.64208 24.5025 8.48966C24.4687 8.33725 24.3853 8.19725 24.2628 8.08737C24.1404 7.97748 23.9843 7.90265 23.8145 7.87234C23.6446 7.84202 23.4685 7.85758 23.3085 7.91705C23.1485 7.97652 23.0117 8.07722 22.9155 8.20643C22.8193 8.33564 22.7679 8.48755 22.7679 8.64295C22.7679 8.85133 22.8602 9.05118 23.0244 9.19853C23.1886 9.34588 23.4114 9.42866 23.6436 9.42866ZM21.0166 10.2144C21.0166 10.3698 21.0679 10.5217 21.1641 10.6509C21.2604 10.7801 21.3971 10.8808 21.5571 10.9403C21.7171 10.9997 21.8932 11.0153 22.0631 10.985C22.233 10.9547 22.389 10.8798 22.5115 10.7699C22.6339 10.6601 22.7173 10.5201 22.7511 10.3677C22.7849 10.2152 22.7676 10.0573 22.7013 9.91369C22.635 9.77012 22.5228 9.64741 22.3788 9.56107C22.2348 9.47474 22.0654 9.42866 21.8923 9.42866C21.66 9.42866 21.4373 9.51144 21.273 9.65879C21.1088 9.80613 21.0166 10.006 21.0166 10.2144ZM20.1409 7.85724C19.9677 7.85724 19.7984 7.90332 19.6544 7.98965C19.5104 8.07599 19.3981 8.1987 19.3318 8.34227C19.2656 8.48584 19.2482 8.64382 19.282 8.79623C19.3158 8.94864 19.3992 9.08864 19.5217 9.19853C19.6441 9.30841 19.8002 9.38324 19.97 9.41356C20.1399 9.44388 20.316 9.42832 20.476 9.36885C20.636 9.30938 20.7728 9.20867 20.869 9.07946C20.9652 8.95026 21.0166 8.79835 21.0166 8.64295C21.0166 8.43456 20.9243 8.23472 20.7601 8.08737C20.5959 7.94002 20.3731 7.85724 20.1409 7.85724ZM25.395 9.42866C25.2218 9.42866 25.0525 9.47474 24.9085 9.56107C24.7645 9.64741 24.6523 9.77012 24.586 9.91369C24.5197 10.0573 24.5024 10.2152 24.5361 10.3677C24.5699 10.5201 24.6533 10.6601 24.7758 10.7699C24.8983 10.8798 25.0543 10.9547 25.2242 10.985C25.394 11.0153 25.5701 10.9997 25.7301 10.9403C25.8901 10.8808 26.0269 10.7801 26.1231 10.6509C26.2193 10.5217 26.2707 10.3698 26.2707 10.2144C26.2707 10.006 26.1784 9.80613 26.0142 9.65879C25.85 9.51144 25.6273 9.42866 25.395 9.42866ZM27.1464 7.85724C26.9732 7.85724 26.8039 7.90332 26.6599 7.98965C26.5159 8.07599 26.4036 8.1987 26.3374 8.34227C26.2711 8.48584 26.2537 8.64382 26.2875 8.79623C26.3213 8.94864 26.4047 9.08864 26.5272 9.19853C26.6497 9.30841 26.8057 9.38324 26.9755 9.41356C27.1454 9.44388 27.3215 9.42832 27.4815 9.36885C27.6415 9.30938 27.7783 9.20867 27.8745 9.07946C27.9707 8.95026 28.0221 8.79835 28.0221 8.64295C28.0221 8.43456 27.9298 8.23472 27.7656 8.08737C27.6014 7.94002 27.3786 7.85724 27.1464 7.85724ZM23.6436 11.0001C23.4704 11.0001 23.3011 11.0462 23.1571 11.1325C23.0131 11.2188 22.9009 11.3415 22.8346 11.4851C22.7683 11.6287 22.751 11.7867 22.7848 11.9391C22.8186 12.0915 22.902 12.2315 23.0244 12.3414C23.1469 12.4512 23.3029 12.5261 23.4728 12.5564C23.6427 12.5867 23.8187 12.5712 23.9787 12.5117C24.1388 12.4522 24.2755 12.3515 24.3717 12.2223C24.468 12.0931 24.5193 11.9412 24.5193 11.7858C24.5193 11.5774 24.4271 11.3776 24.2628 11.2302C24.0986 11.0829 23.8759 11.0001 23.6436 11.0001ZM21.8923 12.5715C21.7191 12.5715 21.5497 12.6176 21.4057 12.7039C21.2617 12.7902 21.1495 12.913 21.0832 13.0565C21.0169 13.2001 20.9996 13.3581 21.0334 13.5105C21.0672 13.6629 21.1506 13.8029 21.273 13.9128C21.3955 14.0227 21.5515 14.0975 21.7214 14.1278C21.8913 14.1581 22.0674 14.1426 22.2274 14.0831C22.3874 14.0236 22.5241 13.9229 22.6204 13.7937C22.7166 13.6645 22.7679 13.5126 22.7679 13.3572C22.7679 13.1488 22.6757 12.949 22.5115 12.8016C22.3472 12.6543 22.1245 12.5715 21.8923 12.5715ZM18.3895 15.7143C18.2163 15.7143 18.047 15.7604 17.903 15.8467C17.759 15.9331 17.6467 16.0558 17.5805 16.1994C17.5142 16.3429 17.4968 16.5009 17.5306 16.6533C17.5644 16.8057 17.6478 16.9457 17.7703 17.0556C17.8927 17.1655 18.0488 17.2403 18.2187 17.2706C18.3885 17.301 18.5646 17.2854 18.7246 17.2259C18.8846 17.1665 19.0214 17.0658 19.1176 16.9366C19.2138 16.8073 19.2652 16.6554 19.2652 16.5C19.2652 16.2917 19.1729 16.0918 19.0087 15.9445C18.8445 15.7971 18.6217 15.7143 18.3895 15.7143ZM16.6381 17.2857C16.4649 17.2857 16.2956 17.3318 16.1516 17.4182C16.0076 17.5045 15.8954 17.6272 15.8291 17.7708C15.7628 17.9143 15.7455 18.0723 15.7792 18.2247C15.813 18.3772 15.8964 18.5172 16.0189 18.627C16.1414 18.7369 16.2974 18.8118 16.4673 18.8421C16.6371 18.8724 16.8132 18.8568 16.9732 18.7974C17.1332 18.7379 17.27 18.6372 17.3662 18.508C17.4624 18.3788 17.5138 18.2269 17.5138 18.0715C17.5138 17.8631 17.4215 17.6632 17.2573 17.5159C17.0931 17.3685 16.8704 17.2857 16.6381 17.2857ZM20.1409 14.1429C19.9677 14.1429 19.7984 14.189 19.6544 14.2753C19.5104 14.3617 19.3981 14.4844 19.3318 14.6279C19.2656 14.7715 19.2482 14.9295 19.282 15.0819C19.3158 15.2343 19.3992 15.3743 19.5217 15.4842C19.6441 15.5941 19.8002 15.6689 19.97 15.6992C20.1399 15.7295 20.316 15.714 20.476 15.6545C20.636 15.5951 20.7728 15.4943 20.869 15.3651C20.9652 15.2359 21.0166 15.084 21.0166 14.9286C21.0166 14.7202 20.9243 14.5204 20.7601 14.373C20.5959 14.2257 20.3731 14.1429 20.1409 14.1429ZM21.3258 3.42044L20.7073 2.86504C20.626 2.79206 20.5295 2.73417 20.4232 2.69467C20.317 2.65518 20.2031 2.63485 20.0881 2.63485C19.973 2.63485 19.8592 2.65518 19.7529 2.69467C19.6466 2.73417 19.5501 2.79206 19.4688 2.86504L19.1585 3.14298C18.0199 2.13607 16.4854 1.5716 14.8867 1.57157C13.8337 1.57157 12.8573 1.83183 11.9915 2.2517L11.4442 1.76063C10.2021 0.640994 8.51657 0.00805447 6.75595 0.000148904C3.037 -0.0244045 0 2.99125 0 6.32756V21.2143C0 21.4227 0.0922599 21.6225 0.256484 21.7699C0.420707 21.9172 0.643443 22 0.87569 22H2.62707C2.85932 22 3.08205 21.9172 3.24628 21.7699C3.4105 21.6225 3.50276 21.4227 3.50276 21.2143V6.20725C3.50276 4.72668 4.6521 3.34923 6.29402 3.16606C6.78048 3.10888 7.27508 3.15298 7.73949 3.29494C8.20389 3.4369 8.62562 3.67291 8.97199 3.98468L9.5193 4.47574C9.04697 5.25065 8.7569 6.12671 8.7569 7.07153C8.75717 8.5059 9.38625 9.88261 10.5083 10.9043L10.1985 11.1828C10.0344 11.3301 9.94222 11.5299 9.94222 11.7381C9.94222 11.9464 10.0344 12.1462 10.1985 12.2935L10.817 12.8489C10.8983 12.9219 10.9948 12.9798 11.1011 13.0193C11.2073 13.0588 11.3212 13.0791 11.4362 13.0791C11.5513 13.0791 11.6651 13.0588 11.7714 13.0193C11.8777 12.9798 11.9742 12.9219 12.0555 12.8489L21.3258 4.53172C21.4071 4.45876 21.4716 4.37214 21.5157 4.2768C21.5597 4.18146 21.5823 4.07928 21.5823 3.97608C21.5823 3.87289 21.5597 3.7707 21.5157 3.67536C21.4716 3.58002 21.4071 3.4934 21.3258 3.42044Z" fill="#00199D"/>
</g>
</svg>
