<svg width="27" height="24" viewBox="0 0 27 24" fill="none" xmlns="http://www.w3.org/2000/svg">
<path id="Vector" d="M10.1934 5.19457e-09C10.5525 -2.24069e-05 10.9079 0.0724789 11.2383 0.213156C11.5687 0.353833 11.8672 0.559787 12.1161 0.818667L12.2761 1.00133L14.1401 3.33333H24.1667C24.8395 3.33312 25.4875 3.58721 25.9808 4.04466C26.4741 4.50212 26.7763 5.12913 26.8267 5.8L26.8334 6V21.3333C26.8336 22.0061 26.5795 22.6541 26.1221 23.1474C25.6646 23.6407 25.0376 23.9429 24.3667 23.9933L24.1667 24H2.83341C2.16065 24.0002 1.51266 23.7461 1.01935 23.2887C0.526042 22.8312 0.223873 22.2042 0.173415 21.5333L0.166748 21.3333V2.66667C0.166535 1.9939 0.420623 1.34591 0.878077 0.852603C1.33553 0.359294 1.96254 0.0571244 2.63341 0.00666682L2.83341 5.19457e-09H10.1934ZM10.1934 2.66667H2.83341V21.3333H24.1667V6H14.1401C13.781 6.00002 13.4256 5.92752 13.0952 5.78684C12.7648 5.64617 12.4663 5.44021 12.2174 5.18133L12.0574 4.99867L10.1934 2.66667ZM9.50008 12C9.8537 12 10.1928 12.1405 10.4429 12.3905C10.6929 12.6406 10.8334 12.9797 10.8334 13.3333C10.8334 13.687 10.6929 14.0261 10.4429 14.2761C10.1928 14.5262 9.8537 14.6667 9.50008 14.6667C9.14646 14.6667 8.80732 14.5262 8.55727 14.2761C8.30722 14.0261 8.16675 13.687 8.16675 13.3333C8.16675 12.9797 8.30722 12.6406 8.55727 12.3905C8.80732 12.1405 9.14646 12 9.50008 12ZM13.5001 12C13.8537 12 14.1928 12.1405 14.4429 12.3905C14.6929 12.6406 14.8334 12.9797 14.8334 13.3333C14.8334 13.687 14.6929 14.0261 14.4429 14.2761C14.1928 14.5262 13.8537 14.6667 13.5001 14.6667C13.1465 14.6667 12.8073 14.5262 12.5573 14.2761C12.3072 14.0261 12.1667 13.687 12.1667 13.3333C12.1667 12.9797 12.3072 12.6406 12.5573 12.3905C12.8073 12.1405 13.1465 12 13.5001 12ZM17.5001 12C17.8537 12 18.1928 12.1405 18.4429 12.3905C18.6929 12.6406 18.8334 12.9797 18.8334 13.3333C18.8334 13.687 18.6929 14.0261 18.4429 14.2761C18.1928 14.5262 17.8537 14.6667 17.5001 14.6667C17.1465 14.6667 16.8073 14.5262 16.5573 14.2761C16.3072 14.0261 16.1667 13.687 16.1667 13.3333C16.1667 12.9797 16.3072 12.6406 16.5573 12.3905C16.8073 12.1405 17.1465 12 17.5001 12Z" fill="#D6D6D6"/>
</svg>
