<svg width="32" height="32" viewBox="0 0 32 32" fill="none" xmlns="http://www.w3.org/2000/svg">
<g id="Group 215">
<path id="Vector" d="M5.27582 12.77C2.09683 7.35175 5.62615 0.462236 11.7438 0.0241707C15.3488 -0.233963 18.564 1.59078 20.0963 4.76468C21.6508 7.98564 21.125 11.7909 18.5208 14.3296C17.4056 15.4162 17.9079 15.6953 18.8908 16.1957C21.6724 17.611 24.8349 17.103 27.0042 14.7175C27.834 13.8045 28.4221 13.7981 29.2689 14.6583C32.8498 18.3015 32.9286 23.5551 29.3917 27.2255C26.1116 30.6283 21.9719 31.877 18.7617 31.9622C12.7751 31.9667 8.97553 30.6538 5.92243 28.0057C1.81262 24.4414 1.40508 18.8425 5.06092 14.9311C5.79654 14.1427 5.81688 13.6938 5.27582 12.77ZM9.9483 5.57278C9.3551 5.60203 9.04483 6.0242 9.04992 6.44319C9.04483 7.0561 9.47272 7.4077 10.0399 7.38163C10.607 7.35556 10.9401 7.00333 10.895 6.43874C10.853 5.9034 10.5447 5.5429 9.9483 5.57278ZM9.2521 26.3125C12.646 29.2308 18.9067 29.3942 22.4665 26.6807C23.576 25.835 24.4114 24.7815 24.9029 23.4699C25.6659 21.4309 24.6581 19.5693 22.5149 19.4326C19.9679 19.2711 17.7139 18.6493 15.6343 17.0483C13.924 15.7309 11.8958 15.8498 9.98454 16.9014C8.03964 17.9715 7.30402 20.2019 7.21246 22.0908C7.14634 23.6117 7.89467 25.1433 9.2521 26.3125Z" fill="#00199D"/>
<path id="Vector_2" d="M0.0444951 7.898C0.306444 6.71223 1.35996 6.99135 2.30221 6.77136C2.15344 8.63489 2.18141 10.4196 2.95645 12.3588C1.01345 11.2804 -0.258145 9.26878 0.0444951 7.898Z" fill="#00199D"/>
<path id="Vector_3" d="M14.9794 18.8286C16.9198 20.4524 19.1509 21.0182 21.5624 21.2446C23.4202 21.4182 23.7477 22.0031 22.794 23.5214C21.2986 25.9005 19.0033 26.7226 16.3139 26.7131C14.1592 26.7169 12.1437 26.2471 10.448 24.8623C9.6693 24.2204 9.16582 23.3047 9.04096 22.3033C8.9161 21.3018 9.17934 20.2905 9.77664 19.4771C10.9465 17.9022 13.3784 17.4889 14.9794 18.8286Z" fill="#00199C"/>
</g>
</svg>
