<svg width="32" height="32" viewBox="0 0 32 32" fill="none" xmlns="http://www.w3.org/2000/svg">
<g id="Group 215">
<path id="Vector" d="M5.27582 12.77C2.09683 7.35175 5.62615 0.462236 11.7438 0.0241707C15.3488 -0.233963 18.564 1.59078 20.0963 4.76468C21.6508 7.98564 21.125 11.7909 18.5208 14.3296C17.4056 15.4162 17.9079 15.6953 18.8908 16.1957C21.6724 17.611 24.8349 17.103 27.0042 14.7175C27.834 13.8045 28.4221 13.7981 29.2689 14.6583C32.8498 18.3015 32.9286 23.5551 29.3917 27.2255C26.1116 30.6283 21.9719 31.877 18.7617 31.9622C12.7751 31.9667 8.97553 30.6538 5.92243 28.0057C1.81262 24.4414 1.40508 18.8425 5.06092 14.9311C5.79654 14.1427 5.81688 13.6938 5.27582 12.77ZM9.9483 5.57278C9.3551 5.60203 9.04483 6.0242 9.04992 6.44319C9.04483 7.0561 9.47272 7.4077 10.0399 7.38163C10.607 7.35556 10.9401 7.00333 10.895 6.43874C10.853 5.9034 10.5447 5.5429 9.9483 5.57278ZM9.2521 26.3125C12.646 29.2308 18.9067 29.3942 22.4665 26.6807C23.576 25.835 24.4114 24.7815 24.9029 23.4699C25.6659 21.4309 24.6581 19.5693 22.5149 19.4326C19.9679 19.2711 17.7139 18.6493 15.6343 17.0483C13.924 15.7309 11.8958 15.8498 9.98454 16.9014C8.03964 17.9715 7.30402 20.2019 7.21246 22.0908C7.14634 23.6117 7.89467 25.1433 9.2521 26.3125Z" fill="white"/>
<path id="Vector_2" d="M0.0444646 7.89812C0.306413 6.71236 1.35993 6.99147 2.30218 6.77148C2.1534 8.63501 2.18138 10.4197 2.95642 12.3589C1.01342 11.2806 -0.258176 9.2689 0.0444646 7.89812Z" fill="white"/>
<path id="Vector_3" d="M14.9793 18.8284C16.9198 20.4523 19.1508 21.0181 21.5624 21.2445C23.4202 21.418 23.7476 22.003 22.7939 23.5213C21.2985 25.9004 19.0033 26.7225 16.3139 26.713C14.1592 26.7168 12.1437 26.2469 10.448 24.8622C9.66926 24.2203 9.16578 23.3046 9.04093 22.3031C8.91607 21.3017 9.17931 20.2904 9.77661 19.4769C10.9465 17.9021 13.3784 17.4888 14.9793 18.8284Z" fill="white"/>
</g>
</svg>
