<svg width="27" height="28" viewBox="0 0 27 28" fill="none" xmlns="http://www.w3.org/2000/svg">
<path id="Vector" d="M13.4999 0.5C6.18851 0.5 0.264648 6.54234 0.264648 14C0.264648 21.4577 6.18851 27.5 13.4999 27.5C20.8114 27.5 26.7352 21.4577 26.7352 14C26.7352 6.54234 20.8114 0.5 13.4999 0.5ZM13.4999 5.72581C16.0936 5.72581 18.1963 7.87057 18.1963 10.5161C18.1963 13.1617 16.0936 15.3065 13.4999 15.3065C10.9063 15.3065 8.80355 13.1617 8.80355 10.5161C8.80355 7.87057 10.9063 5.72581 13.4999 5.72581ZM13.4999 24.4516C10.3672 24.4516 7.56007 23.0036 5.68151 20.7391C6.68483 18.8121 8.64878 17.4839 10.9383 17.4839C11.0664 17.4839 11.1944 17.5056 11.3172 17.5438C12.011 17.7724 12.7368 17.9194 13.4999 17.9194C14.2631 17.9194 14.9943 17.7724 15.6827 17.5438C15.8054 17.5056 15.9335 17.4839 16.0616 17.4839C18.3511 17.4839 20.3151 18.8121 21.3184 20.7391C19.4398 23.0036 16.6327 24.4516 13.4999 24.4516Z" fill="#D6D6D6"/>
</svg>
