<svg width="29" height="22" viewBox="0 0 29 22" fill="none" xmlns="http://www.w3.org/2000/svg">
<path id="Vector" d="M17.1271 14.1429C16.9539 14.1429 16.7846 14.189 16.6406 14.2753C16.4966 14.3617 16.3844 14.4844 16.3181 14.6279C16.2518 14.7715 16.2345 14.9295 16.2683 15.0819C16.302 15.2343 16.3854 15.3743 16.5079 15.4842C16.6304 15.5941 16.7864 15.6689 16.9563 15.6992C17.1262 15.7295 17.3022 15.714 17.4622 15.6545C17.6222 15.5951 17.759 15.4943 17.8552 15.3651C17.9515 15.2359 18.0028 15.084 18.0028 14.9286C18.0028 14.7202 17.9106 14.5204 17.7463 14.373C17.5821 14.2257 17.3594 14.1429 17.1271 14.1429ZM18.8785 9.42866C18.7053 9.42866 18.536 9.47474 18.392 9.56107C18.248 9.64741 18.1357 9.77012 18.0695 9.91369C18.0032 10.0573 17.9859 10.2152 18.0196 10.3677C18.0534 10.5201 18.1368 10.6601 18.2593 10.7699C18.3818 10.8798 18.5378 10.9547 18.7077 10.985C18.8775 11.0153 19.0536 10.9997 19.2136 10.9403C19.3736 10.8808 19.5104 10.7801 19.6066 10.6509C19.7028 10.5217 19.7542 10.3698 19.7542 10.2144C19.7542 10.006 19.6619 9.80613 19.4977 9.65879C19.3335 9.51144 19.1108 9.42866 18.8785 9.42866ZM20.6299 12.5715C20.8031 12.5715 20.9724 12.5254 21.1164 12.4391C21.2604 12.3527 21.3726 12.23 21.4389 12.0865C21.5052 11.9429 21.5225 11.7849 21.4887 11.6325C21.455 11.4801 21.3716 11.3401 21.2491 11.2302C21.1266 11.1203 20.9706 11.0455 20.8007 11.0152C20.6309 10.9849 20.4548 11.0004 20.2948 11.0599C20.1348 11.1194 19.998 11.2201 19.9018 11.3493C19.8056 11.4785 19.7542 11.6304 19.7542 11.7858C19.7542 11.9942 19.8465 12.194 20.0107 12.3414C20.1749 12.4887 20.3976 12.5715 20.6299 12.5715ZM18.8785 14.1429C19.0517 14.1429 19.221 14.0968 19.365 14.0105C19.509 13.9242 19.6213 13.8014 19.6875 13.6579C19.7538 13.5143 19.7712 13.3563 19.7374 13.2039C19.7036 13.0515 19.6202 12.9115 19.4977 12.8016C19.3752 12.6917 19.2192 12.6169 19.0493 12.5866C18.8795 12.5563 18.7034 12.5718 18.5434 12.6313C18.3834 12.6908 18.2466 12.7915 18.1504 12.9207C18.0542 13.0499 18.0028 13.2018 18.0028 13.3572C18.0028 13.5656 18.0951 13.7654 18.2593 13.9128C18.4235 14.0601 18.6463 14.1429 18.8785 14.1429ZM17.1271 11.0001C16.9539 11.0001 16.7846 11.0462 16.6406 11.1325C16.4966 11.2188 16.3844 11.3415 16.3181 11.4851C16.2518 11.6287 16.2345 11.7867 16.2683 11.9391C16.302 12.0915 16.3854 12.2315 16.5079 12.3414C16.6304 12.4512 16.7864 12.5261 16.9563 12.5564C17.1262 12.5867 17.3022 12.5712 17.4622 12.5117C17.6222 12.4522 17.759 12.3515 17.8552 12.2223C17.9515 12.0931 18.0028 11.9412 18.0028 11.7858C18.0028 11.5774 17.9106 11.3776 17.7463 11.2302C17.5821 11.0829 17.3594 11.0001 17.1271 11.0001ZM24.1326 9.42866C24.3058 9.42866 24.4751 9.38258 24.6192 9.29624C24.7632 9.20991 24.8754 9.0872 24.9417 8.94363C25.008 8.80006 25.0253 8.64208 24.9915 8.48966C24.9577 8.33725 24.8743 8.19725 24.7519 8.08737C24.6294 7.97748 24.4734 7.90265 24.3035 7.87234C24.1336 7.84202 23.9575 7.85758 23.7975 7.91705C23.6375 7.97652 23.5008 8.07722 23.4045 8.20643C23.3083 8.33564 23.257 8.48755 23.257 8.64295C23.257 8.85133 23.3492 9.05118 23.5134 9.19853C23.6777 9.34588 23.9004 9.42866 24.1326 9.42866ZM21.5056 10.2144C21.5056 10.3698 21.5569 10.5217 21.6532 10.6509C21.7494 10.7801 21.8861 10.8808 22.0462 10.9403C22.2062 10.9997 22.3822 11.0153 22.5521 10.985C22.722 10.9547 22.878 10.8798 23.0005 10.7699C23.1229 10.6601 23.2063 10.5201 23.2401 10.3677C23.2739 10.2152 23.2566 10.0573 23.1903 9.91369C23.124 9.77012 23.0118 9.64741 22.8678 9.56107C22.7238 9.47474 22.5545 9.42866 22.3813 9.42866C22.149 9.42866 21.9263 9.51144 21.7621 9.65879C21.5978 9.80613 21.5056 10.006 21.5056 10.2144ZM20.6299 7.85724C20.4567 7.85724 20.2874 7.90332 20.1434 7.98965C19.9994 8.07599 19.8871 8.1987 19.8209 8.34227C19.7546 8.48584 19.7372 8.64382 19.771 8.79623C19.8048 8.94864 19.8882 9.08864 20.0107 9.19853C20.1331 9.30841 20.2892 9.38324 20.459 9.41356C20.6289 9.44388 20.805 9.42832 20.965 9.36885C21.125 9.30938 21.2618 9.20867 21.358 9.07946C21.4542 8.95026 21.5056 8.79835 21.5056 8.64295C21.5056 8.43456 21.4133 8.23472 21.2491 8.08737C21.0849 7.94002 20.8621 7.85724 20.6299 7.85724ZM25.884 9.42866C25.7108 9.42866 25.5415 9.47474 25.3975 9.56107C25.2535 9.64741 25.1413 9.77012 25.075 9.91369C25.0087 10.0573 24.9914 10.2152 25.0252 10.3677C25.0589 10.5201 25.1423 10.6601 25.2648 10.7699C25.3873 10.8798 25.5433 10.9547 25.7132 10.985C25.8831 11.0153 26.0591 10.9997 26.2191 10.9403C26.3791 10.8808 26.5159 10.7801 26.6121 10.6509C26.7084 10.5217 26.7597 10.3698 26.7597 10.2144C26.7597 10.006 26.6675 9.80613 26.5032 9.65879C26.339 9.51144 26.1163 9.42866 25.884 9.42866ZM27.6354 7.85724C27.4622 7.85724 27.2929 7.90332 27.1489 7.98965C27.0049 8.07599 26.8927 8.1987 26.8264 8.34227C26.7601 8.48584 26.7428 8.64382 26.7765 8.79623C26.8103 8.94864 26.8937 9.08864 27.0162 9.19853C27.1387 9.30841 27.2947 9.38324 27.4646 9.41356C27.6344 9.44388 27.8105 9.42832 27.9705 9.36885C28.1305 9.30938 28.2673 9.20867 28.3635 9.07946C28.4597 8.95026 28.5111 8.79835 28.5111 8.64295C28.5111 8.43456 28.4188 8.23472 28.2546 8.08737C28.0904 7.94002 27.8677 7.85724 27.6354 7.85724ZM24.1326 11.0001C23.9594 11.0001 23.7901 11.0462 23.6461 11.1325C23.5021 11.2188 23.3899 11.3415 23.3236 11.4851C23.2573 11.6287 23.24 11.7867 23.2738 11.9391C23.3076 12.0915 23.391 12.2315 23.5134 12.3414C23.6359 12.4512 23.7919 12.5261 23.9618 12.5564C24.1317 12.5867 24.3077 12.5712 24.4678 12.5117C24.6278 12.4522 24.7645 12.3515 24.8608 12.2223C24.957 12.0931 25.0083 11.9412 25.0083 11.7858C25.0083 11.5774 24.9161 11.3776 24.7519 11.2302C24.5876 11.0829 24.3649 11.0001 24.1326 11.0001ZM22.3813 12.5715C22.2081 12.5715 22.0388 12.6176 21.8948 12.7039C21.7507 12.7902 21.6385 12.913 21.5722 13.0565C21.506 13.2001 21.4886 13.3581 21.5224 13.5105C21.5562 13.6629 21.6396 13.8029 21.7621 13.9128C21.8845 14.0227 22.0406 14.0975 22.2104 14.1278C22.3803 14.1581 22.5564 14.1426 22.7164 14.0831C22.8764 14.0236 23.0132 13.9229 23.1094 13.7937C23.2056 13.6645 23.257 13.5126 23.257 13.3572C23.257 13.1488 23.1647 12.949 23.0005 12.8016C22.8362 12.6543 22.6135 12.5715 22.3813 12.5715ZM18.8785 15.7143C18.7053 15.7143 18.536 15.7604 18.392 15.8467C18.248 15.9331 18.1357 16.0558 18.0695 16.1994C18.0032 16.3429 17.9859 16.5009 18.0196 16.6533C18.0534 16.8057 18.1368 16.9457 18.2593 17.0556C18.3818 17.1655 18.5378 17.2403 18.7077 17.2706C18.8775 17.301 19.0536 17.2854 19.2136 17.2259C19.3736 17.1665 19.5104 17.0658 19.6066 16.9366C19.7028 16.8073 19.7542 16.6554 19.7542 16.5C19.7542 16.2917 19.6619 16.0918 19.4977 15.9445C19.3335 15.7971 19.1108 15.7143 18.8785 15.7143ZM17.1271 17.2857C16.9539 17.2857 16.7846 17.3318 16.6406 17.4182C16.4966 17.5045 16.3844 17.6272 16.3181 17.7708C16.2518 17.9143 16.2345 18.0723 16.2683 18.2247C16.302 18.3772 16.3854 18.5172 16.5079 18.627C16.6304 18.7369 16.7864 18.8118 16.9563 18.8421C17.1262 18.8724 17.3022 18.8568 17.4622 18.7974C17.6222 18.7379 17.759 18.6372 17.8552 18.508C17.9515 18.3788 18.0028 18.2269 18.0028 18.0715C18.0028 17.8631 17.9106 17.6632 17.7463 17.5159C17.5821 17.3685 17.3594 17.2857 17.1271 17.2857ZM20.6299 14.1429C20.4567 14.1429 20.2874 14.189 20.1434 14.2753C19.9994 14.3617 19.8871 14.4844 19.8209 14.6279C19.7546 14.7715 19.7372 14.9295 19.771 15.0819C19.8048 15.2343 19.8882 15.3743 20.0107 15.4842C20.1331 15.5941 20.2892 15.6689 20.459 15.6992C20.6289 15.7295 20.805 15.714 20.965 15.6545C21.125 15.5951 21.2618 15.4943 21.358 15.3651C21.4542 15.2359 21.5056 15.084 21.5056 14.9286C21.5056 14.7202 21.4133 14.5204 21.2491 14.373C21.0849 14.2257 20.8621 14.1429 20.6299 14.1429ZM21.8148 3.42044L21.1963 2.86504C21.115 2.79206 21.0185 2.73417 20.9122 2.69467C20.806 2.65518 20.6921 2.63485 20.5771 2.63485C20.4621 2.63485 20.3482 2.65518 20.2419 2.69467C20.1357 2.73417 20.0391 2.79206 19.9578 2.86504L19.6475 3.14298C18.5089 2.13607 16.9744 1.5716 15.3757 1.57157C14.3227 1.57157 13.3463 1.83183 12.4805 2.2517L11.9332 1.76063C10.6911 0.640994 9.00558 0.00805447 7.24496 0.000148904C3.52602 -0.0244045 0.489014 2.99125 0.489014 6.32756V21.2143C0.489014 21.4227 0.581274 21.6225 0.745497 21.7699C0.909721 21.9172 1.13246 22 1.3647 22H3.11608C3.34833 22 3.57107 21.9172 3.73529 21.7699C3.89951 21.6225 3.99177 21.4227 3.99177 21.2143V6.20725C3.99177 4.72668 5.14112 3.34923 6.78304 3.16606C7.2695 3.10888 7.7641 3.15298 8.2285 3.29494C8.69291 3.4369 9.11464 3.67291 9.461 3.98468L10.0083 4.47574C9.53598 5.25065 9.24591 6.12671 9.24591 7.07153C9.24618 8.5059 9.87527 9.88261 10.9973 10.9043L10.6875 11.1828C10.5234 11.3301 10.4312 11.5299 10.4312 11.7381C10.4312 11.9464 10.5234 12.1462 10.6875 12.2935L11.306 12.8489C11.3873 12.9219 11.4838 12.9798 11.5901 13.0193C11.6964 13.0588 11.8102 13.0791 11.9253 13.0791C12.0403 13.0791 12.1542 13.0588 12.2604 13.0193C12.3667 12.9798 12.4632 12.9219 12.5445 12.8489L21.8148 4.53172C21.8961 4.45876 21.9607 4.37214 22.0047 4.2768C22.0487 4.18146 22.0714 4.07928 22.0714 3.97608C22.0714 3.87289 22.0487 3.7707 22.0047 3.67536C21.9607 3.58002 21.8961 3.4934 21.8148 3.42044Z" fill="#D6D6D6"/>
</svg>
