<svg width="27" height="27" viewBox="0 0 27 27" fill="none" xmlns="http://www.w3.org/2000/svg">
<g id="&#240;&#159;&#166;&#134; icon &#34;User Circle&#34;">
<path id="Vector" d="M13.2353 0C5.92386 0 0 6.04234 0 13.5C0 20.9577 5.92386 27 13.2353 27C20.5467 27 26.4706 20.9577 26.4706 13.5C26.4706 6.04234 20.5467 0 13.2353 0ZM13.2353 5.22581C15.829 5.22581 17.9317 7.37057 17.9317 10.0161C17.9317 12.6617 15.829 14.8065 13.2353 14.8065C10.6416 14.8065 8.5389 12.6617 8.5389 10.0161C8.5389 7.37057 10.6416 5.22581 13.2353 5.22581ZM13.2353 23.9516C10.1026 23.9516 7.29542 22.5036 5.41686 20.2391C6.42019 18.3121 8.38413 16.9839 10.6736 16.9839C10.8017 16.9839 10.9298 17.0056 11.0525 17.0438C11.7463 17.2724 12.4721 17.4194 13.2353 17.4194C13.9985 17.4194 14.7296 17.2724 15.4181 17.0438C15.5408 17.0056 15.6689 16.9839 15.797 16.9839C18.0865 16.9839 20.0504 18.3121 21.0537 20.2391C19.1752 22.5036 16.368 23.9516 13.2353 23.9516Z" fill="#00199D"/>
</g>
</svg>
