<svg width="37" height="35" viewBox="0 0 37 35" fill="none" xmlns="http://www.w3.org/2000/svg">
<g id="&#240;&#159;&#166;&#134; icon &#34;Snowflake&#34;">
<path id="Vector" d="M35.5075 24.2812L32.3893 22.709L35.1018 22.0732C35.77 21.916 36.1677 21.3145 35.9848 20.7334L35.6586 19.6738C35.4836 19.0928 34.7916 18.7441 34.1234 18.9014L27.7837 20.3848L22.0723 17.5L27.7916 14.6152L34.1314 16.0986C34.7995 16.2559 35.4836 15.9072 35.6666 15.3262L35.9927 14.2666C36.1677 13.6855 35.7779 13.084 35.1098 12.9268L32.3973 12.291L35.5154 10.7188C36.112 10.418 36.3188 9.74805 35.9768 9.22168L35.3484 8.27148C35.0064 7.74512 34.2348 7.56738 33.6382 7.86816L30.52 9.44043L31.2439 7.06836C31.4189 6.4873 31.0291 5.88574 30.3609 5.72852L29.1518 5.44824C28.4837 5.29102 27.7996 5.63965 27.6166 6.2207L25.9223 11.7578L20.203 14.6426V8.86621L24.8405 4.8125C25.3257 4.38867 25.3257 3.69141 24.8405 3.26758L23.9576 2.49512C23.4723 2.07129 22.6769 2.07129 22.1917 2.49512L20.211 4.23145V1.09375C20.211 0.492188 19.6542 0 18.9621 0H17.7133C17.0212 0 16.4644 0.492188 16.4644 1.09375V4.24512L14.4837 2.50879C13.9985 2.08496 13.2031 2.08496 12.7178 2.50879L11.8031 3.28125C11.3178 3.70508 11.3178 4.40234 11.8031 4.82617L16.4405 8.87988V14.6562L10.7213 11.7715L9.02695 6.23438C8.85195 5.65332 8.15991 5.30469 7.49173 5.46191L6.28265 5.74219C5.61447 5.89941 5.21674 6.50098 5.3997 7.08203L6.12356 9.4541L3.00539 7.88184C2.4088 7.58105 1.64517 7.75879 1.29517 8.28516L0.666769 9.23535C0.324725 9.76172 0.523588 10.4248 1.12813 10.7324L4.24629 12.3047L1.53381 12.9268C0.865631 13.084 0.467906 13.6855 0.65086 14.2666L0.976994 15.3262C1.15199 15.9072 1.84404 16.2559 2.51221 16.0986L8.85195 14.6152L14.5712 17.5L8.85195 20.3848L2.51221 18.9014C1.84404 18.7441 1.15995 19.0928 0.976994 19.6738L0.65086 20.7334C0.475861 21.3145 0.865631 21.916 1.53381 22.0732L4.24629 22.709L1.12813 24.2812C0.531542 24.582 0.324725 25.252 0.666769 25.7783L1.29517 26.7285C1.63722 27.2549 2.4088 27.4326 3.00539 27.1318L6.12356 25.5596L5.3997 27.9316C5.2247 28.5127 5.61447 29.1143 6.28265 29.2715L7.49173 29.5518C8.15991 29.709 8.844 29.3604 9.02695 28.7793L10.7213 23.2422L16.4405 20.3574V26.1338L11.8031 30.1875C11.3178 30.6113 11.3178 31.3086 11.8031 31.7324L12.686 32.5049C13.1712 32.9287 13.9667 32.9287 14.4519 32.5049L16.4326 30.7686V33.9062C16.4326 34.5078 16.9894 35 17.6814 35H18.9303C19.6223 35 20.1792 34.5078 20.1792 33.9062V30.7549L22.1598 32.4912C22.6451 32.915 23.4405 32.915 23.9257 32.4912L24.8087 31.7188C25.2939 31.2949 25.2939 30.5977 24.8087 30.1738L20.1712 26.1201V20.3438L25.8905 23.2285L27.5848 28.7656C27.7598 29.3467 28.4518 29.6953 29.12 29.5381L30.3291 29.2578C30.9973 29.1006 31.395 28.499 31.2121 27.918L30.4882 25.5459L33.6064 27.1182C34.2029 27.4189 34.9666 27.2412 35.3166 26.7148L35.945 25.7646C36.3109 25.252 36.112 24.582 35.5075 24.2812Z" fill="url(#paint0_linear_69_209)"/>
</g>
<defs>
<linearGradient id="paint0_linear_69_209" x1="18.3209" y1="0" x2="18.3209" y2="35" gradientUnits="userSpaceOnUse">
<stop stop-color="#2C40F9"/>
<stop offset="0.543217" stop-color="#638ECB"/>
<stop offset="1" stop-color="#8AAEE0" stop-opacity="0.6"/>
</linearGradient>
</defs>
</svg>
