<svg width="33" height="33" viewBox="0 0 33 33" fill="none" xmlns="http://www.w3.org/2000/svg">
<g id="information_fill" clip-path="url(#clip0_77_202)">
<g id="Group">
<path id="Vector" d="M16.5 2.75C24.0941 2.75 30.25 8.90588 30.25 16.5C30.25 24.0941 24.0941 30.25 16.5 30.25C8.90588 30.25 2.75 24.0941 2.75 16.5C2.75 8.90588 8.90588 2.75 16.5 2.75ZM16.4862 13.75H15.125C14.7745 13.7504 14.4375 13.8846 14.1826 14.1252C13.9278 14.3657 13.7744 14.6946 13.7539 15.0444C13.7333 15.3943 13.8472 15.7388 14.0721 16.0075C14.2971 16.2763 14.6161 16.449 14.9641 16.4904L15.125 16.5V23.3612C15.125 24.0763 15.6667 24.6675 16.3625 24.7417L16.5138 24.75H17.1875C17.4767 24.75 17.7585 24.6588 17.9929 24.4895C18.2273 24.3201 18.4023 24.0811 18.4931 23.8066C18.5838 23.532 18.5857 23.2358 18.4984 22.9601C18.4112 22.6844 18.2392 22.4432 18.007 22.2709L17.875 22.1843V15.1388C17.875 14.4237 17.3333 13.8325 16.6375 13.7582L16.4862 13.75ZM16.5 9.625C16.1353 9.625 15.7856 9.76987 15.5277 10.0277C15.2699 10.2856 15.125 10.6353 15.125 11C15.125 11.3647 15.2699 11.7144 15.5277 11.9723C15.7856 12.2301 16.1353 12.375 16.5 12.375C16.8647 12.375 17.2144 12.2301 17.4723 11.9723C17.7301 11.7144 17.875 11.3647 17.875 11C17.875 10.6353 17.7301 10.2856 17.4723 10.0277C17.2144 9.76987 16.8647 9.625 16.5 9.625Z" fill="#00199D"/>
</g>
</g>
<defs>
<clipPath id="clip0_77_202">
<rect width="33" height="33" fill="white"/>
</clipPath>
</defs>
</svg>
