<svg width="22" height="22" viewBox="0 0 22 22" fill="none" xmlns="http://www.w3.org/2000/svg">
<g id="information_line" clip-path="url(#clip0_37_196)">
<g id="Group">
<path id="Vector" d="M11.0002 1.8335C16.0629 1.8335 20.1668 5.93741 20.1668 11.0002C20.1668 16.0629 16.0629 20.1668 11.0002 20.1668C5.93741 20.1668 1.8335 16.0629 1.8335 11.0002C1.8335 5.93741 5.93741 1.8335 11.0002 1.8335ZM11.0002 3.66683C9.05524 3.66683 7.18998 4.43945 5.81471 5.81471C4.43945 7.18998 3.66683 9.05524 3.66683 11.0002C3.66683 12.9451 4.43945 14.8103 5.81471 16.1856C7.18998 17.5609 9.05524 18.3335 11.0002 18.3335C12.9451 18.3335 14.8103 17.5609 16.1856 16.1856C17.5609 14.8103 18.3335 12.9451 18.3335 11.0002C18.3335 9.05524 17.5609 7.18998 16.1856 5.81471C14.8103 4.43945 12.9451 3.66683 11.0002 3.66683ZM10.991 9.16683C11.5025 9.16683 11.9168 9.58116 11.9168 10.0927V14.7897C12.0916 14.8906 12.2281 15.0463 12.3054 15.2327C12.3826 15.4192 12.3961 15.6258 12.3439 15.8207C12.2917 16.0157 12.1766 16.1879 12.0165 16.3107C11.8564 16.4336 11.6603 16.5002 11.4585 16.5002H11.0093C10.8877 16.5002 10.7674 16.4762 10.655 16.4297C10.5427 16.3832 10.4406 16.315 10.3547 16.229C10.2687 16.143 10.2005 16.041 10.154 15.9286C10.1074 15.8163 10.0835 15.6959 10.0835 15.5743V11.0002C9.84038 11.0002 9.60722 10.9036 9.43532 10.7317C9.26341 10.5598 9.16683 10.3266 9.16683 10.0835C9.16683 9.84038 9.26341 9.60722 9.43532 9.43532C9.60722 9.26341 9.84038 9.16683 10.0835 9.16683H10.991ZM11.0002 6.41683C11.2433 6.41683 11.4764 6.51341 11.6483 6.68532C11.8203 6.85722 11.9168 7.09038 11.9168 7.3335C11.9168 7.57661 11.8203 7.80977 11.6483 7.98168C11.4764 8.15359 11.2433 8.25016 11.0002 8.25016C10.757 8.25016 10.5239 8.15359 10.352 7.98168C10.1801 7.80977 10.0835 7.57661 10.0835 7.3335C10.0835 7.09038 10.1801 6.85722 10.352 6.68532C10.5239 6.51341 10.757 6.41683 11.0002 6.41683Z" fill="#00199D"/>
</g>
</g>
<defs>
<clipPath id="clip0_37_196">
<rect width="22" height="22" fill="white"/>
</clipPath>
</defs>
</svg>
