<svg width="25" height="28" viewBox="0 0 25 28" fill="none" xmlns="http://www.w3.org/2000/svg">
<g id="Frame 318">
<path id="Vector" d="M4.12164 11.3879C1.63804 6.98035 4.39533 1.37601 9.17477 1.01966C11.9912 0.80968 14.5031 2.29403 15.7002 4.87588C16.9147 7.496 16.5039 10.5914 14.4693 12.6566C13.5981 13.5405 13.9905 13.7675 14.7584 14.1746C16.9315 15.3258 19.4022 14.9126 21.097 12.9721C21.7453 12.2294 22.2047 12.2242 22.8664 12.924C25.6639 15.8875 25.7255 20.1611 22.9622 23.1469C20.3996 25.9149 17.1655 26.9307 14.6576 27C9.98045 27.0036 7.01205 25.9356 4.6268 23.7815C1.416 20.8821 1.0976 16.3276 3.95374 13.1458C4.52845 12.5045 4.54434 12.1394 4.12164 11.3879ZM7.77203 5.53324C7.30859 5.55703 7.06619 5.90045 7.07017 6.24128C7.06619 6.73986 7.40048 7.02586 7.84356 7.00466C8.28663 6.98345 8.54691 6.69693 8.51165 6.23766C8.47886 5.80218 8.23795 5.50893 7.77203 5.53324ZM7.22812 22.4042C9.87961 24.7781 14.7708 24.911 17.5519 22.7036C18.4187 22.0158 19.0714 21.1588 19.4554 20.0918C20.0514 18.4331 19.2641 16.9188 17.5897 16.8076C15.5998 16.6762 13.839 16.1704 12.2142 14.8681C10.878 13.7965 9.29348 13.8932 7.80034 14.7486C6.28088 15.6191 5.70617 17.4334 5.63465 18.97C5.58299 20.2071 6.16763 21.4531 7.22812 22.4042Z" fill="#D6D6D6"/>
<path id="Vector_2" d="M0.114603 7.18009C0.31794 6.1796 1.13573 6.41511 1.86715 6.22949C1.75166 7.80184 1.77338 9.30767 2.375 10.9439C0.866752 10.034 -0.120321 8.33669 0.114603 7.18009Z" fill="#D6D6D6"/>
<path id="Vector_3" d="M11.7078 16.4029C13.2141 17.773 14.9459 18.2505 16.8179 18.4415C18.26 18.5879 18.5142 19.0814 17.7739 20.3625C16.6131 22.3699 14.8314 23.0636 12.7438 23.0555C11.0712 23.0587 9.50665 22.6623 8.19039 21.4939C7.58589 20.9523 7.19507 20.1797 7.09815 19.3347C7.00123 18.4897 7.20557 17.6365 7.66922 16.9501C8.57732 15.6213 10.4651 15.2726 11.7078 16.4029Z" fill="#D6D6D6"/>
</g>
</svg>
