<svg width="89" height="91" viewBox="0 0 89 91" fill="none" xmlns="http://www.w3.org/2000/svg">
<path id="Vector" d="M44.5 0C19.9173 0 0 20.3649 0 45.5C0 70.6351 19.9173 91 44.5 91C69.0827 91 89 70.6351 89 45.5C89 20.3649 69.0827 0 44.5 0ZM44.5 17.6129C53.2206 17.6129 60.2903 24.8415 60.2903 33.7581C60.2903 42.6746 53.2206 49.9032 44.5 49.9032C35.7794 49.9032 28.7097 42.6746 28.7097 33.7581C28.7097 24.8415 35.7794 17.6129 44.5 17.6129ZM44.5 80.7258C33.9671 80.7258 24.5288 75.8456 18.2127 68.2133C21.5861 61.7185 28.1893 57.2419 35.8871 57.2419C36.3177 57.2419 36.7484 57.3153 37.1611 57.4437C39.4938 58.2143 41.9341 58.7097 44.5 58.7097C47.0659 58.7097 49.5242 58.2143 51.8389 57.4437C52.2516 57.3153 52.6823 57.2419 53.1129 57.2419C60.8107 57.2419 67.4139 61.7185 70.7873 68.2133C64.4712 75.8456 55.0329 80.7258 44.5 80.7258Z" fill="#00199D"/>
</svg>
